<svg width="12" height="12" viewBox="0 0 12 12" fill="none" xmlns="http://www.w3.org/2000/svg">
<g opacity="0.3">
<path d="M6.00212 6.41609e-08C3.60137 -0.000349863 1.43163 1.43068 0.486698 3.63764L0.411914 3.66244L0.440908 3.74942C-0.803233 6.81793 0.675684 10.314 3.74419 11.5582C4.46087 11.8488 5.22699 11.9979 6.00035 11.9975C9.31336 11.998 11.9995 9.31266 12 5.99965C12.0005 2.68664 9.31516 0.000474965 6.00212 6.41609e-08ZM10.7075 9.02322L10.3994 8.71538V7.99833C10.3998 7.96739 10.3929 7.9368 10.3794 7.90895L9.5996 6.35148V5.59883C9.5996 5.532 9.56623 5.46956 9.51062 5.43247L8.91074 5.03255C8.86373 5.00116 8.80561 4.99113 8.75078 5.00496L8.01613 5.18852L6.78219 4.65903L6.61242 3.46968L7.08292 2.99938H8.09291L8.43284 3.51027C8.46354 3.55621 8.5119 3.58743 8.56641 3.59645L9.76616 3.79641C9.79831 3.80181 9.83125 3.79918 9.86214 3.78881L10.9671 3.42049C11.8939 5.19899 11.7948 7.33807 10.7075 9.02322ZM9.88274 1.97039L9.55761 2.18714L8.6512 2.00578L8.06312 1.81002C8.02713 1.7978 7.98838 1.79625 7.95154 1.80562L7.2081 1.99139L6.88217 1.88281L7.12371 1.39971H7.79997C7.83099 1.39973 7.86159 1.39256 7.88936 1.37871L8.58121 1.03278C9.05766 1.28148 9.49597 1.59722 9.88274 1.97039ZM3.81021 0.846424L4.29011 1.16636C4.3137 1.18205 4.34035 1.19255 4.36829 1.19715L5.33729 1.35872L5.24271 1.64166L4.73781 1.81022C4.6926 1.82527 4.65423 1.85596 4.62963 1.8968L4.05535 2.85381L3.13295 3.40729L1.77323 3.60145C1.67468 3.61537 1.60139 3.69968 1.60127 3.79921V4.39908C1.60127 4.45212 1.62236 4.50296 1.65985 4.54045L2.00118 4.88178V5.22531L1.16936 4.67063L0.867619 3.76542C1.4417 2.45369 2.49391 1.40991 3.81021 0.846424ZM3.24092 7.40246L2.33711 7.2215L2.00118 6.55143V6.08153L2.74623 5.33649L3.02197 5.88817C3.05584 5.95596 3.12515 5.99877 3.20093 5.99875H4.48746L5.02915 6.90156C5.06529 6.96172 5.13033 6.99852 5.20052 6.99854H5.7564L5.61643 7.6998L4.85939 8.45684C4.82182 8.49431 4.80067 8.54514 4.8006 8.59821V9.0981L4.08075 9.63799C4.03041 9.67576 4.00077 9.73502 4.00077 9.79796V10.5202L3.75202 10.4378L3.40089 9.55961V7.59842C3.40092 7.50339 3.33403 7.42145 3.24092 7.40246ZM2.63985 10.4763C0.754517 9.06191 -0.0427915 6.61802 0.645665 4.36389L0.81183 4.86219C0.825828 4.90435 0.853472 4.94067 0.890414 4.96536L1.88721 5.62983L1.65985 5.85738C1.62236 5.89487 1.60127 5.94571 1.60127 5.99875V6.59862C1.60124 6.62964 1.60841 6.66024 1.62226 6.68801L2.02218 7.48784C2.04987 7.54308 2.10154 7.58242 2.16215 7.59442L3.00197 7.76218V9.598C3.00195 9.62339 3.00677 9.64859 3.01617 9.67218L3.41609 10.672C3.43798 10.7266 3.48282 10.7688 3.53866 10.7874L4.13854 10.9873C4.15858 10.9941 4.17958 10.9976 4.20072 10.9977C4.31115 10.9977 4.40068 10.9082 4.40068 10.7977V9.89794L5.12053 9.35805C5.17087 9.32028 5.20052 9.26102 5.20052 9.19808V8.68099L5.94176 7.93975C5.96963 7.91183 5.98863 7.87626 5.99635 7.83757L6.19631 6.83778C6.21795 6.72947 6.14772 6.62414 6.03942 6.6025C6.02654 6.59992 6.01347 6.59862 6.00035 6.59862H5.31369L4.77201 5.69581C4.73586 5.63565 4.67083 5.59886 4.60064 5.59883H3.32451L2.98098 4.90958C2.95221 4.85204 2.89752 4.81185 2.83401 4.8016C2.77052 4.79063 2.70571 4.81157 2.66065 4.85759L2.4011 5.11613V4.799C2.4011 4.74596 2.38 4.69512 2.34251 4.65763L2.00118 4.3163V3.97257L3.22933 3.79721C3.2557 3.79338 3.28107 3.78434 3.30391 3.77061L4.3037 3.17074C4.33175 3.15389 4.35524 3.1304 4.37209 3.10235L4.93397 2.16595L5.46366 1.98919C5.52347 1.96956 5.57041 1.92265 5.59003 1.86281L5.78999 1.26294C5.82464 1.15808 5.76772 1.04498 5.66287 1.01034C5.6532 1.00714 5.64327 1.00469 5.63323 1.00299L4.47587 0.810031L4.27251 0.67446C5.53082 0.264895 6.89369 0.315584 8.11811 0.81743L7.75278 0.999792H7.00014C6.92398 0.999367 6.85422 1.04226 6.82018 1.11037L6.42026 1.9102C6.371 2.00903 6.41116 2.12911 6.50999 2.17837C6.51842 2.18257 6.52711 2.18617 6.53604 2.18914L7.13591 2.3891C7.17191 2.40132 7.21065 2.40287 7.24749 2.3935L7.99093 2.20774L8.53562 2.3891C8.54342 2.3919 8.55144 2.39405 8.55962 2.3955L9.55941 2.59546C9.6114 2.60606 9.66549 2.59541 9.70958 2.56587L10.1647 2.26233C10.3887 2.5118 10.5899 2.78075 10.7662 3.06596L9.78236 3.39389L8.71718 3.21633L8.36526 2.68844C8.32836 2.63313 8.26638 2.59978 8.19989 2.59946H7.00014C6.9471 2.59946 6.89626 2.62055 6.85877 2.65805L6.2589 3.25792C6.21435 3.30244 6.19338 3.36535 6.20231 3.42769L6.40227 4.82739C6.41234 4.8966 6.45783 4.95552 6.52224 4.98276L7.92195 5.58264C7.96204 5.60001 8.00678 5.60358 8.04912 5.59283L8.76317 5.41427L9.19968 5.70581V6.39867C9.19933 6.42961 9.20618 6.4602 9.21968 6.48805L9.99952 8.04552V8.79817C9.99952 8.8512 10.0206 8.90204 10.0581 8.93954L10.4764 9.35805C8.62123 11.8309 5.11266 12.3316 2.63985 10.4763Z" fill="#202020"/>
</g>
</svg>
