<svg width="24" height="16" viewBox="0 0 24 16" fill="none" xmlns="http://www.w3.org/2000/svg">
<path d="M23.5118 2.51556C23.236 1.53583 22.4265 0.762782 21.3989 0.499009C19.521 0.00800158 12.0083 8.67428e-06 12.0083 8.67428e-06C12.0083 8.67428e-06 4.49682 -0.0079847 2.61775 0.461327C1.61046 0.722817 0.778251 1.513 0.500048 2.49158C0.00479858 4.27976 1.75693e-06 7.98858 1.75693e-06 7.98858C1.75693e-06 7.98858 -0.00479483 11.7157 0.486857 13.4856C0.762662 14.4642 1.57209 15.2372 2.60096 15.501C4.49802 15.992 11.9903 16 11.9903 16C11.9903 16 19.503 16.008 21.3809 15.5398C22.4073 15.2772 23.2204 14.5053 23.4998 13.5267C23.9962 11.7396 23.9998 8.03197 23.9998 8.03197C23.9998 8.03197 24.0238 4.30374 23.5118 2.51556ZM9.60521 11.4245L9.6112 4.57323L15.8552 8.00457L9.60521 11.4245Z" fill="#202020"/>
</svg>
