<svg width="23" height="19" viewBox="0 0 23 19" fill="none" xmlns="http://www.w3.org/2000/svg">
<path d="M20.637 4.73512C20.6522 4.94343 20.6522 5.15055 20.6522 5.35766C20.6522 11.6962 15.9088 19 7.23987 19C4.5691 19 2.08793 18.2132 0 16.8467C0.379198 16.8907 0.744352 16.9062 1.13876 16.9062C3.34256 16.9062 5.3708 16.1492 6.99176 14.8577C4.91904 14.8136 3.18222 13.4328 2.58299 11.5331C2.87441 11.5771 3.16701 11.6069 3.47364 11.6069C3.89614 11.6069 4.32098 11.5474 4.7154 11.4438C2.55373 10.9986 0.935121 9.0691 0.935121 6.73844V6.67892C1.56361 7.03483 2.29274 7.25742 3.06518 7.28718C1.79534 6.42777 0.96321 4.95771 0.96321 3.29483C0.96321 2.40446 1.19611 1.5879 1.60457 0.876081C3.9254 3.78405 7.41426 5.685 11.3256 5.89331C11.2531 5.53621 11.2086 5.16602 11.2086 4.79464C11.2086 2.15211 13.3106 0 15.9228 0C17.2804 0 18.5058 0.578499 19.3672 1.5141C20.4322 1.30579 21.4528 0.904648 22.3586 0.355907C22.0087 1.46886 21.2632 2.40446 20.2859 2.99843C21.2351 2.89368 22.155 2.62705 23 2.25567C22.3586 3.20555 21.5569 4.05187 20.637 4.73512Z" fill="#202020"/>
</svg>
